<svg xmlns="http://www.w3.org/2000/svg" viewBox="0 0 1600 900" role="img" aria-labelledby="title desc">
  <title id="title">Blueprint scene for Hytale pre-release Update 5 planning</title>
  <desc id="desc">A blue technical drawing of builders, a planning board, tools, and server infrastructure shapes.</desc>
  <defs>
    <pattern id="grid" width="40" height="40" patternUnits="userSpaceOnUse">
      <path d="M40 0H0V40" fill="none" stroke="#70afdb" stroke-opacity=".12" stroke-width="1"/>
    </pattern>
    <pattern id="fine" width="10" height="10" patternUnits="userSpaceOnUse">
      <path d="M10 0H0V10" fill="none" stroke="#70afdb" stroke-opacity=".08" stroke-width="1"/>
    </pattern>
    <linearGradient id="field" x1="0" x2="1" y1="0" y2="1">
      <stop offset="0" stop-color="#4560a9"/>
      <stop offset="1" stop-color="#70afdb"/>
    </linearGradient>
    <filter id="glow">
      <feGaussianBlur stdDeviation="5" result="blur"/>
      <feMerge>
        <feMergeNode in="blur"/>
        <feMergeNode in="SourceGraphic"/>
      </feMerge>
    </filter>
  </defs>
  <rect width="1600" height="900" fill="#4560a9"/>
  <rect width="1600" height="900" fill="url(#fine)"/>
  <rect width="1600" height="900" fill="url(#grid)"/>
  <path d="M0 744C230 700 360 730 540 696c176-33 278-120 446-104 138 13 213 92 356 83 111-7 181-60 258-84v209H0z" fill="#70afdb" opacity=".08"/>
  <path d="M110 710H1490M150 756H1450M220 802H1380" fill="none" stroke="#70afdb" stroke-opacity=".28" stroke-width="2"/>

  <g fill="none" stroke="#70afdb" stroke-linecap="round" stroke-linejoin="round">
    <g opacity=".95" filter="url(#glow)">
      <path d="M193 582 245 260 472 312 532 628z" stroke-width="7"/>
      <path d="M242 285 438 330 489 596 229 545z" stroke-width="3"/>
      <path d="M281 364 401 390M267 433 438 470M254 505 454 542" stroke-width="3" opacity=".7"/>
      <path d="M308 410h95v84h-95zM338 339h58v38h-58zM456 630l30 96M215 590l-52 100" stroke-width="5"/>
      <path d="M314 570c31 16 86 24 127 10" stroke-width="3" opacity=".8"/>
    </g>

    <g transform="translate(610 248)" opacity=".95">
      <path d="M0 290h430l-32 132H36z" stroke-width="6"/>
      <path d="M35 245h365l30 45H0z" stroke-width="6"/>
      <path d="M72 420v112M348 420v112M119 420l-28 112M310 420l32 112" stroke-width="8"/>
      <path d="M91 224h91l14 21H80zM238 188h86l14 57H218zM170 142h74l-6 86h-82z" stroke-width="5"/>
      <path d="M196 100l84 42M198 99l-30 43M170 141l74 1M158 196h78" stroke-width="3" opacity=".8"/>
      <path d="M64 285h309M96 324h270M118 364h222" stroke-width="3" opacity=".55"/>
      <path d="M397 332l62 92M416 318l75 111M441 302l78 117" stroke-width="5"/>
      <path d="M447 294l34-20 66 110-34 21z" stroke-width="4"/>
    </g>

    <g transform="translate(540 230)" opacity=".9">
      <path d="M78 78h96M99 42h52M88 42l-22 36h124l-30-36" stroke-width="6"/>
      <path d="M82 78v74l-42 58 48 122h114l42-126-50-54V78" stroke-width="6"/>
      <path d="M101 166h71M83 239h135M102 332v78M188 332v78" stroke-width="5"/>
      <path d="M92 410h-50M184 410h60" stroke-width="7"/>
      <circle cx="117" cy="116" r="10" stroke-width="5"/>
      <circle cx="161" cy="116" r="10" stroke-width="5"/>
    </g>

    <g transform="translate(1100 235)" opacity=".9">
      <path d="M88 78h126M116 36h70M108 36 82 78h158l-34-42" stroke-width="6"/>
      <path d="M98 78v82l-56 64 44 122h134l52-118-58-68V78" stroke-width="6"/>
      <path d="M121 174h78M90 252h154M110 346v82M210 346v82" stroke-width="5"/>
      <path d="M108 428H48M210 428h70" stroke-width="7"/>
      <circle cx="139" cy="118" r="10" stroke-width="5"/>
      <circle cx="184" cy="118" r="10" stroke-width="5"/>
      <path d="M16 198l-62 78M18 200l-5 96" stroke-width="5"/>
    </g>

    <g opacity=".65">
      <path d="M940 146h174v132H940zM966 172h122M966 204h88M966 236h140" stroke-width="4"/>
      <path d="M1150 124h220v148M1190 166h142M1190 200h102M1190 234h160" stroke-width="3"/>
      <path d="M1322 132l42-42M1354 132l42-42M1378 152l42-42" stroke-width="3"/>
      <circle cx="1028" cy="524" r="134" stroke-width="3" stroke-dasharray="9 18"/>
      <circle cx="1028" cy="524" r="82" stroke-width="3" stroke-dasharray="5 14"/>
      <path d="M948 524h160M1028 444v160" stroke-width="3"/>
    </g>

    <g opacity=".55">
      <path d="M110 150h220M110 184h150M110 218h190" stroke-width="3"/>
      <path d="M1320 612h140M1320 644h96M1320 676h118" stroke-width="3"/>
      <path d="M1240 570c54-46 118-46 192 0M1240 594c54-46 118-46 192 0" stroke-width="3"/>
      <path d="M688 120l44 50 64-86M732 170l72 58 108-126" stroke-width="4"/>
    </g>
  </g>
</svg>
